<?xml version="1.0" encoding="UTF-8"?> <!-- Generator: Adobe Illustrator 21.0.2, SVG Export Plug-In . SVG Version: 6.00 Build 0) --> <svg xmlns="http://www.w3.org/2000/svg" xmlns:xlink="http://www.w3.org/1999/xlink" id="Layer_1" x="0px" y="0px" viewBox="0 0 690.7 435.8" style="enable-background:new 0 0 690.7 435.8;" xml:space="preserve"> <style type="text/css"> .st0{clip-path:url(#SVGID_2_);} .st1{fill:#FFFFFF;} .st2{fill-rule:evenodd;clip-rule:evenodd;fill:#FFFFFF;} </style> <g> <defs> <rect id="SVGID_1_" x="0.5" y="0.5" width="689.7" height="434.9"></rect> </defs> <clipPath id="SVGID_2_"> <use xlink:href="#SVGID_1_" style="overflow:visible;"></use> </clipPath> <g class="st0"> <g> <g> <path class="st1" d="M2.6,332.8L0.7,327c127.4-42.3,377-106.9,689.7-64.9l-0.8,6C378.1,226.4,129.5,290.7,2.6,332.8z"></path> <g> <polygon class="st2" points="316.8,0.9 321.9,22.3 343.4,27.2 322.4,31.6 316.8,51.9 310.9,31.9 291.7,26.7 311.3,22.3 "></polygon> <polygon class="st2" points="249.3,69 254.4,90.4 275.9,95.3 254.9,99.7 249.3,120 243.3,100 224.2,94.8 243.8,90.4 "></polygon> <polygon class="st2" points="398.4,45 403.5,66.3 424.9,71.2 404,75.7 398.4,96 392.4,76 373.3,70.8 392.8,66.3 "></polygon> <polygon class="st2" points="345.3,190.9 350.4,212.3 371.9,217.1 350.9,221.6 345.3,241.9 339.4,221.9 320.3,216.7 339.8,212.3 "></polygon> </g> <g> <path class="st1" d="M87.2,358.6h10.2v76.3h-11v-59.3L62.9,405h-2l-23.7-29.5v59.3H26.3v-76.3h10.3L62,390L87.2,358.6z"></path> <path class="st1" d="M123.3,358.6h43.2v9.7h-32.3v23.3h31.2v9.8h-31.2v23.7h33.3v9.7h-44.3V358.6z"></path> <path class="st1" d="M189,434.9v-76.3h19.1c7.7,0,13.8,1.9,18.4,5.7c4.5,3.8,6.8,9,6.8,15.5c0,4.4-1.1,8.3-3.3,11.5 c-2.2,3.2-5.4,5.7-9.6,7.3c2.4,1.6,4.8,3.8,7.2,6.6c2.3,2.8,5.6,7.6,9.8,14.5c2.7,4.3,4.8,7.6,6.4,9.8l4,5.5h-13l-3.3-5 c-0.1-0.2-0.3-0.5-0.7-0.9l-2.1-3l-3.4-5.6l-3.7-6c-2.2-3.1-4.3-5.6-6.2-7.5c-1.9-1.8-3.6-3.2-5.1-4c-1.5-0.8-4-1.2-7.6-1.2 h-2.8v33.2H189z M203.2,367.9h-3.3V392h4.1c5.5,0,9.3-0.5,11.4-1.4c2.1-0.9,3.7-2.4,4.8-4.3c1.1-1.9,1.7-4.1,1.7-6.5 c0-2.4-0.6-4.6-1.9-6.5c-1.3-2-3.1-3.3-5.4-4.1C212.4,368.3,208.6,367.9,203.2,367.9z"></path> <path class="st1" d="M331.4,417.2v12c-8,4.4-17.2,6.6-27.7,6.6c-8.5,0-15.7-1.7-21.7-5.1c-5.9-3.4-10.6-8.1-14.1-14.1 c-3.5-6-5.2-12.5-5.2-19.5c0-11.1,4-20.4,11.9-28c7.9-7.6,17.7-11.4,29.3-11.4c8,0,16.9,2.1,26.7,6.3v11.7 c-8.9-5.1-17.6-7.6-26.1-7.6c-8.7,0-16,2.8-21.8,8.3c-5.8,5.5-8.7,12.4-8.7,20.7c0,8.4,2.8,15.3,8.5,20.6 c5.7,5.4,12.9,8.1,21.8,8.1C313.6,425.7,322.6,422.9,331.4,417.2z"></path> <path class="st1" d="M391.8,357.6c11.8,0,21.6,3.7,29.5,11.2c7.8,7.5,11.8,16.8,11.8,28.1c0,11.2-4,20.6-11.9,27.9 c-7.9,7.4-17.9,11.1-29.9,11.1c-11.5,0-21.1-3.7-28.7-11.1c-7.7-7.4-11.5-16.6-11.5-27.7c0-11.4,3.8-20.8,11.6-28.3 C370.3,361.3,380,357.6,391.8,357.6z M392.3,367.9c-8.7,0-15.9,2.7-21.5,8.2c-5.6,5.5-8.4,12.4-8.4,20.9 c0,8.2,2.8,15.1,8.5,20.5c5.6,5.5,12.7,8.2,21.2,8.2c8.5,0,15.6-2.8,21.3-8.3c5.7-5.6,8.5-12.5,8.5-20.8 c0-8.1-2.8-14.9-8.5-20.4C407.6,370.7,400.6,367.9,392.3,367.9z"></path> <path class="st1" d="M474.8,403l-8.3-5c-5.2-3.2-8.9-6.3-11.1-9.4c-2.2-3.1-3.3-6.6-3.3-10.6c0-6,2.1-10.9,6.3-14.6 c4.2-3.7,9.6-5.6,16.2-5.6c6.4,0,12.2,1.8,17.5,5.4v12.4c-5.5-5.3-11.4-7.9-17.7-7.9c-3.6,0-6.5,0.8-8.8,2.5 c-2.3,1.7-3.4,3.8-3.4,6.3c0,2.3,0.8,4.4,2.5,6.4c1.7,2,4.4,4.1,8.1,6.3l8.3,4.9c9.3,5.6,14,12.6,14,21.2 c0,6.1-2.1,11.1-6.1,14.9c-4.1,3.8-9.4,5.7-16,5.7c-7.5,0-14.4-2.3-20.6-6.9V415c5.9,7.5,12.7,11.2,20.5,11.2 c3.4,0,6.3-0.9,8.5-2.9c2.3-1.9,3.4-4.3,3.4-7.1C484.9,411.5,481.5,407.1,474.8,403z"></path> <path class="st1" d="M569.7,358.6h11v43.3c0,5.9-0.4,10.3-1.3,13.3c-0.9,3-1.9,5.5-3.2,7.4c-1.3,2-2.8,3.8-4.6,5.3 c-6,5.2-13.9,7.8-23.7,7.8c-9.9,0-17.9-2.6-23.9-7.8c-1.8-1.6-3.3-3.4-4.6-5.4c-1.3-2-2.3-4.4-3.1-7.3 c-0.8-2.9-1.2-7.4-1.2-13.5v-43.2h11v43.3c0,7.2,0.8,12.2,2.5,15c1.6,2.8,4.1,5,7.5,6.7c3.3,1.7,7.3,2.5,11.8,2.5 c6.5,0,11.8-1.7,15.8-5.1c2.1-1.8,3.7-4,4.6-6.4c1-2.5,1.4-6.7,1.4-12.7V358.6z"></path> <path class="st1" d="M605.6,434.9v-76.3h19.1c7.7,0,13.8,1.9,18.4,5.7c4.5,3.8,6.8,9,6.8,15.5c0,4.4-1.1,8.3-3.3,11.5 c-2.2,3.2-5.4,5.7-9.5,7.3c2.4,1.6,4.8,3.8,7.1,6.6c2.3,2.8,5.6,7.6,9.8,14.5c2.7,4.3,4.8,7.6,6.4,9.8l4,5.5h-13l-3.3-5 c-0.1-0.2-0.3-0.5-0.7-0.9l-2.1-3l-3.4-5.6l-3.6-6c-2.3-3.1-4.3-5.6-6.2-7.5c-1.9-1.8-3.6-3.2-5.1-4c-1.5-0.8-4.1-1.2-7.6-1.2 h-2.8v33.2H605.6z M619.8,367.9h-3.3V392h4.2c5.5,0,9.3-0.5,11.4-1.4c2.1-0.9,3.7-2.4,4.8-4.3c1.1-1.9,1.7-4.1,1.7-6.5 c0-2.4-0.6-4.6-1.9-6.5c-1.3-2-3.1-3.3-5.4-4.1C629,368.3,625.2,367.9,619.8,367.9z"></path> </g> </g> </g> </g> </g> </svg> 